# xmcd
#
# Track frame offsets:
#	150
#	16436
#	29106
#	43497
#	59256
#	72129
#	87816
#	99563
#
# Disc length: 1468 seconds
#
# Revision: 1
# Processed by: cddbd v1.5.2PL0 Copyright (c) Steve Scherf et al.
# Submitted via: audiograbber 1.83.01
#
DISCID=6c05ba08
DTITLE=Hillcrest - Hillcrest 46
DYEAR=1900
DGENRE=Country
TTITLE0=Turn Around - Daniel Moore
TTITLE1=Lonesome Still - The Nobles
TTITLE2=If You Wonna Br With Me - Heather Smith
TTITLE3=Everything You Say, Evrything You Do - Jimmy Etheridge
TTITLE4=I´m Going Crazy - Stacey Jolly
TTITLE5=I Know - Tony Wait
TTITLE6=Diden´t I - Janay James
TTITLE7=Two Times Too Many - Gbe Gagnon
EXTD=
EXTT0=
EXTT1=
EXTT2=
EXTT3=
EXTT4=
EXTT5=
EXTT6=
EXTT7=
PLAYORDER=
